<?xml version="1.0" standalone="no"?>
<!DOCTYPE svg PUBLIC "-//W3C//DTD SVG 20010904//EN"
 "http://www.w3.org/TR/2001/REC-SVG-20010904/DTD/svg10.dtd">
<svg version="1.0" xmlns="http://www.w3.org/2000/svg"
 width="225.000000pt" height="225.000000pt" viewBox="0 0 225.000000 225.000000"
 preserveAspectRatio="xMidYMid meet">

<g transform="translate(0.000000,225.000000) scale(0.100000,-0.100000)"
fill="#000000" stroke="none">
<path d="M0 1125 l0 -1125 533 1 c360 1 509 4 462 10 -464 59 -831 384 -957
847 -26 98 -36 343 -18 447 85 480 456 849 937 930 70 12 22 13 -439 14 l-518
1 0 -1125z"/>
<path d="M1240 2240 c52 -4 130 -17 173 -29 431 -122 743 -462 821 -896 13
-74 14 -45 15 428 l1 507 -552 -1 c-325 -1 -514 -5 -458 -9z"/>
<path d="M977 2060 c-253 -43 -487 -195 -636 -413 -108 -159 -179 -423 -156
-587 l7 -51 57 8 c31 4 112 7 180 5 l123 -2 -6 54 c-12 95 21 215 84 306 16
23 16 32 4 100 -16 93 -17 129 -3 186 15 58 32 66 100 50 65 -15 111 -38 165
-82 l41 -33 49 16 c70 23 289 23 368 1 l59 -17 42 34 c50 41 134 81 192 90 38
6 43 4 60 -21 22 -34 24 -170 5 -249 -13 -50 -12 -52 21 -107 52 -87 70 -156
65 -251 l-4 -82 139 0 139 0 -5 145 c-5 151 -17 207 -70 338 -61 149 -232 347
-370 430 -91 55 -212 102 -310 123 -96 20 -251 24 -340 9z"/>
<path d="M2240 991 c0 -48 -27 -161 -60 -252 -142 -392 -506 -679 -923 -728
-47 -5 116 -9 461 -10 l532 -1 0 510 c0 281 -2 510 -5 510 -3 0 -5 -13 -5 -29z"/>
<path d="M240 992 c-29 -6 -36 -12 -38 -34 -4 -33 11 -36 66 -12 26 12 77 18
170 22 98 3 131 7 123 15 -13 13 -265 20 -321 9z"/>
<path d="M1810 991 c-24 -5 2 -9 85 -13 66 -4 130 -10 143 -14 16 -4 22 -2 22
8 0 25 -156 37 -250 19z"/>
<path d="M332 940 c-41 -9 -122 -40 -122 -46 0 -2 10 -32 21 -66 73 -214 234
-411 427 -521 82 -48 190 -92 200 -82 4 3 7 50 7 103 l0 97 -105 5 c-58 3
-112 9 -120 14 -35 21 -64 55 -100 116 -21 36 -59 85 -84 110 -25 24 -46 48
-46 52 0 13 47 9 83 -5 18 -8 59 -42 92 -77 70 -72 104 -90 177 -90 89 1 127
14 179 66 27 27 49 51 49 55 0 3 -30 14 -67 23 -141 34 -256 106 -314 196 -25
39 -38 49 -67 54 -50 8 -169 6 -210 -4z"/>
<path d="M1740 900 c-65 -101 -178 -174 -318 -206 l-70 -16 35 -46 c66 -86 85
-144 91 -269 2 -62 6 -113 9 -113 13 0 138 69 188 105 83 59 202 186 257 275
51 82 104 208 114 268 6 38 5 39 -26 46 -18 3 -81 6 -140 6 l-108 0 -32 -50z"/>
<path d="M1142 408 c-8 -8 -12 -47 -12 -121 l0 -108 43 3 42 3 3 82 c4 107 -6
147 -39 151 -13 2 -30 -3 -37 -10z"/>
<path d="M972 358 c-7 -7 -12 -43 -12 -90 0 -76 1 -78 24 -78 13 0 31 -3 40
-6 14 -5 16 5 16 74 0 60 -4 85 -16 96 -19 19 -36 20 -52 4z"/>
<path d="M1316 348 c-18 -25 -22 -133 -6 -143 5 -3 25 -3 45 1 l35 6 0 69 c0
57 -3 70 -19 79 -28 15 -38 13 -55 -12z"/>
</g>
</svg>
